<svg xmlns="http://www.w3.org/2000/svg" width="32.227" height="26.174" viewBox="0 0 32.227 26.174"><defs><style>.a{fill:#fff;}</style></defs><path class="a" d="M28.914,9.9c.02.286.02.573.02.859,0,8.732-6.646,18.792-18.792,18.792A18.665,18.665,0,0,1,0,26.59a13.663,13.663,0,0,0,1.595.082,13.228,13.228,0,0,0,8.2-2.822,6.617,6.617,0,0,1-6.176-4.581,8.329,8.329,0,0,0,1.247.1A6.986,6.986,0,0,0,6.6,19.147a6.606,6.606,0,0,1-5.3-6.482v-.082a6.652,6.652,0,0,0,2.985.838A6.615,6.615,0,0,1,2.249,4.587,18.774,18.774,0,0,0,15.868,11.5,7.456,7.456,0,0,1,15.7,9.986,6.611,6.611,0,0,1,27.135,5.467a13,13,0,0,0,4.192-1.595,6.587,6.587,0,0,1-2.9,3.64,13.241,13.241,0,0,0,3.8-1.022A14.2,14.2,0,0,1,28.914,9.9Z" transform="translate(0 -3.381)"/></svg>